<?xml version="1.0" encoding="utf-8"?>
<!-- Generator: Adobe Illustrator 18.1.1, SVG Export Plug-In . SVG Version: 6.00 Build 0)  -->
<svg version="1.1" id="Calque_1" xmlns="http://www.w3.org/2000/svg" xmlns:xlink="http://www.w3.org/1999/xlink" x="0px" y="0px"
	 viewBox="0 0 632 174" enable-background="new 0 0 632 174" xml:space="preserve">
<g>
	<g>
		<g>
			<path fill="#FFFFFF" d="M358.5,33.3h-25.6v77.8h25.6c21.5,0,39.1-17.5,39.1-38.9C397.5,50.8,380,33.4,358.5,33.3z M388.7,72.2
				c0,16.7-13.7,30.2-30.5,30.2h-16.7V42h16.7C375,42,388.7,55.5,388.7,72.2z"/>
			<path fill="#FFFFFF" d="M465.1,55.2c0-12.1-11.6-21.9-25.9-21.9h-33.1v77.9h8.7V77h20.5l22.5,34.1l0.1,0.1h10.5l-23.1-34.8
				C456.8,74,465.1,65.1,465.1,55.2z M456.2,55.2c0,7.3-7.6,13.4-17,13.4h-24.3v-27h24.3C448.5,41.8,456.2,47.8,456.2,55.2z"/>
			<polygon fill="#FFFFFF" points="476.6,111.1 535.2,111.1 535.2,102.4 485.4,102.4 485.4,75.6 525.7,75.6 525.7,66.9 485.4,66.9 
				485.4,41.9 535.2,41.9 535.2,33.2 476.6,33.2 			"/>
			<polygon fill="#FFFFFF" points="265.2,111.1 323.8,111.1 323.8,102.4 274,102.4 274,75.7 314.3,75.7 314.3,67 274,67 274,42 
				323.8,42 323.8,33.3 265.2,33.3 			"/>
			<path fill="#FFFFFF" d="M248.9,88.6c-5.6,8.9-15.4,14.6-26.2,15.3c-0.7,0-1.4,0.1-2,0.1c-8,0-15.8-2.8-21.8-7.9
				c-6.6-5.6-10.5-13.3-11-21.8c-0.5-8.4,2.4-16.6,8.2-22.9c5.8-6.3,13.8-10.1,22.6-10.6c0.7,0,1.4-0.1,2.1-0.1
				c10.1,0,19.5,4.4,25.8,12.2l0.5,0.6l7.3-5.5l-0.5-0.6c-8-9.9-20.1-15.5-33.1-15.5c-0.8,0-1.7,0-2.6,0.1
				c-11.2,0.7-21.5,5.5-28.9,13.6c-7.5,8.1-11.2,18.5-10.5,29.4c0.7,10.8,5.7,20.7,14.1,27.9c7.7,6.6,17.6,10.2,27.8,10.2
				c0.8,0,1.7,0,2.6-0.1c13.8-0.8,26.3-8.1,33.5-19.6l0.4-0.7l-7.9-4.6L248.9,88.6z"/>
			<path fill="#FFFFFF" d="M553.3,45.3c-7.2,7.6-11.1,17.4-11.1,27.6s3.9,20,11.1,27.6c7.1,7.5,16.8,12.2,27.2,13.1l0.3,0v-9.3
				l-0.3,0c-16.7-1.9-28.9-15.1-28.9-31.5s12.1-29.6,28.9-31.5l0.3,0v-9.3l-0.3,0C570,33.1,560.4,37.7,553.3,45.3z"/>
			<path fill="#00B7AA" d="M615.9,45.3c-7.1-7.5-16.8-12.2-27.2-13.2l-0.3,0v9.3l0.3,0c16.5,2,28.9,15.5,28.9,31.4
				s-12.4,29.5-28.9,31.4l-0.3,0v9.3l0.3,0c10.4-1,20.1-5.7,27.2-13.2c7.2-7.6,11.1-17.3,11.1-27.6S623.1,52.8,615.9,45.3z"/>
		</g>
		<g>
			<path fill="#009A9E" d="M187.5,150.1v-19.4h2.5v19.4H187.5z"/>
			<path fill="#009A9E" d="M223.5,135.3v14.8h-2.5v-19.4h1.9l12,15.1v-15.1h2.5v19.4h-2.1L223.5,135.3z"/>
			<path fill="#009A9E" d="M281.8,132.9h-6.7v17.2h-2.5v-17.2H266v-2.2h15.8V132.9z"/>
			<path fill="#009A9E" d="M323.6,148v2.2h-13.2v-19.4h12.9v2.2h-10.5v6.3h9.1v2h-9.1v6.7H323.6z"/>
			<path fill="#009A9E" d="M353.5,150.1v-19.4h8.3c0.9,0,1.6,0.2,2.4,0.5c0.7,0.4,1.3,0.8,1.9,1.4c0.5,0.6,0.9,1.3,1.2,2
				c0.3,0.7,0.4,1.5,0.4,2.3c0,0.7-0.1,1.3-0.3,2c-0.2,0.6-0.5,1.2-0.8,1.7c-0.4,0.5-0.8,0.9-1.3,1.3c-0.5,0.4-1.1,0.6-1.7,0.8
				l4.7,7.4h-2.8l-4.4-7H356v7H353.5z M356,141h5.9c0.5,0,1-0.1,1.4-0.3s0.8-0.5,1.1-0.9c0.3-0.4,0.5-0.8,0.7-1.3
				c0.2-0.5,0.2-1,0.2-1.5c0-0.5-0.1-1.1-0.3-1.5c-0.2-0.5-0.4-0.9-0.8-1.3c-0.3-0.4-0.7-0.7-1.1-0.9c-0.4-0.2-0.9-0.3-1.4-0.3H356
				V141z"/>
			<path fill="#009A9E" d="M395.3,150.1l8-19.4h2l7.9,19.4h-2.6l-2.3-5.7h-8.1l-2.3,5.7H395.3z M404.3,133.6l-3.6,9h7.1L404.3,133.6
				z"/>
			<path fill="#009A9E" d="M440.2,140.3c0-1.2,0.2-2.3,0.6-3.5c0.4-1.2,1-2.2,1.8-3.1c0.8-0.9,1.8-1.7,2.9-2.2
				c1.1-0.6,2.4-0.8,3.9-0.8c1.7,0,3.2,0.4,4.5,1.2c1.2,0.8,2.2,1.8,2.8,3.1l-1.9,1.3c-0.3-0.6-0.6-1.1-1.1-1.6
				c-0.4-0.4-0.9-0.8-1.3-1c-0.5-0.3-1-0.4-1.5-0.5c-0.5-0.1-1-0.2-1.5-0.2c-1.1,0-2,0.2-2.9,0.7c-0.8,0.4-1.5,1-2.1,1.7
				c-0.6,0.7-1,1.5-1.3,2.4c-0.3,0.9-0.4,1.8-0.4,2.7c0,1,0.2,2,0.5,2.9c0.3,0.9,0.8,1.7,1.4,2.4c0.6,0.7,1.3,1.3,2.1,1.7
				c0.8,0.4,1.7,0.6,2.7,0.6c0.5,0,1-0.1,1.6-0.2c0.5-0.1,1.1-0.3,1.5-0.6c0.5-0.3,1-0.6,1.4-1.1c0.4-0.4,0.8-0.9,1.1-1.5l2,1.1
				c-0.3,0.7-0.7,1.4-1.3,1.9c-0.6,0.6-1.2,1-1.9,1.4c-0.7,0.4-1.4,0.7-2.2,0.9c-0.8,0.2-1.5,0.3-2.3,0.3c-1.3,0-2.5-0.3-3.7-0.9
				c-1.1-0.6-2.1-1.3-2.9-2.3c-0.8-0.9-1.4-2-1.9-3.2C440.4,142.8,440.2,141.5,440.2,140.3z"/>
			<path fill="#009A9E" d="M499.8,132.9h-6.7v17.2h-2.5v-17.2H484v-2.2h15.8V132.9z"/>
			<path fill="#009A9E" d="M528.4,150.1v-19.4h2.5v19.4H528.4z"/>
			<path fill="#009A9E" d="M561.5,130.7l6.4,16.3l6.4-16.3h2.6l-7.9,19.4h-2.1l-7.9-19.4H561.5z"/>
			<path fill="#009A9E" d="M618.2,148v2.2H605v-19.4h12.9v2.2h-10.5v6.3h9.1v2h-9.1v6.7H618.2z"/>
		</g>
		<path fill="#FFFFFF" d="M402.8,154.2"/>
	</g>
	<g>
		<polygon fill="#FFFFFF" points="128.6,94.3 97,113.3 95.9,97.1 117.3,74.3 95.4,91.1 94.5,77.5 107,57.7 94,70.2 91,28.5 
			91,141.8 99,141.8 97.6,121.8 		"/>
		<polygon fill="#008A80" points="123.8,84.5 99.3,105.9 122.7,97.2 		"/>
		<polygon fill="#35BBB0" points="123.8,84.5 122.7,97.2 136.3,105.9 		"/>
		<g>
			<polygon fill="#35BBB0" points="113.3,76.9 113.1,66.2 122.8,82.8 			"/>
		</g>
		<polygon fill="#008A80" points="96.8,82.8 113.3,76.9 113.1,66.2 		"/>
		<polygon fill="#006E66" points="99.3,105.9 136.3,105.9 122.7,97.2 		"/>
		<polygon fill="#006E66" points="96.8,82.8 122.8,82.8 113.3,76.9 		"/>
		<g>
			<polygon fill="#35BBB0" points="91,28.5 102.4,58.8 112.3,64.8 			"/>
			<polygon fill="#008A80" points="91,64.8 91,28.5 102.4,58.8 			"/>
			<polygon fill="#006E66" points="91,64.8 112.3,64.8 102.4,58.8 			"/>
		</g>
		<g>
			<path fill="#00B7AA" d="M151.1,124.8l-0.1-0.1l-0.1,0.1c-12.5,20.7-34.3,34-58.5,35.5c-1.5,0.1-3,0.1-4.5,0.1
				c-17.9,0-35.2-6.5-48.7-18.4c-14.7-13-23.4-30.9-24.6-50.5C13.4,71.9,19.9,53,32.9,38.3c13-14.7,30.9-23.5,50.5-24.6
				c1.5-0.1,3-0.1,4.5-0.1c22.7,0,43.8,10.3,57.9,28.2l0.1,0.1l7.5-5.9l-0.1-0.1C137.4,15.6,113.6,4,88,4c-1.7,0-3.4,0.1-5.1,0.2
				C60.8,5.6,40.5,15.4,25.8,32C11.1,48.6,3.8,70,5.2,92.1c1.4,22.1,11.2,42.4,27.8,57.1C48.2,162.6,67.7,170,87.8,170
				c1.7,0,3.4-0.1,5.2-0.2c27.2-1.7,51.9-16.6,66-40l0.1-0.1L151.1,124.8z"/>
			<path fill="#999999" d="M91,141.8l0-113.3l-2.9,40.5L75,59.9l12.9,12.9l-0.7,10.5L66.8,72.2l20,16.3l-1,14.2L57.3,88
				c0,0,21.9,17.1,28,22.3l-0.9,13.2l-38.8-14.7c0,0,29.2,17.4,38.2,23.1l-0.7,9.9H91z"/>
			<polygon fill="#008A80" points="38.8,118 50.1,98.5 52.8,110.9 			"/>
			<polygon fill="#008A80" points="60.7,80.4 62,90.9 51.3,96.5 			"/>
			<polygon fill="#00B7AA" points="60.7,80.4 83.6,96.5 62,90.9 			"/>
			<g>
				<polygon fill="#00B7AA" points="69.1,66.2 85.6,78.5 64.9,78.4 				"/>
			</g>
			<polygon fill="#00B7AA" points="50.1,98.5 52.8,110.9 81.2,118 			"/>
			<polygon fill="#006E66" points="61.8,78.6 85.6,78.5 70,73.9 			"/>
			<polygon fill="#006E66" points="51.3,96.5 83.6,96.5 62,90.9 			"/>
			<polygon fill="#006E66" points="38.8,118 81.2,118 52.8,110.9 			"/>
			<polygon fill="#008A80" points="69.1,66.2 70,73.9 61.8,78.6 			"/>
			<g>
				<polygon fill="#008A80" points="91,28.5 79.7,58.8 69.7,64.8 				"/>
				<polygon fill="#35BBB0" points="91,64.8 91,28.5 79.7,58.8 				"/>
				<polygon fill="#006E66" points="91,64.8 69.7,64.8 79.7,58.8 				"/>
			</g>
		</g>
	</g>
</g>
</svg>
