<?xml version="1.0" encoding="utf-8"?>
<!-- Generator: Adobe Illustrator 18.1.1, SVG Export Plug-In . SVG Version: 6.00 Build 0)  -->
<svg version="1.1" id="Calque_1" xmlns="http://www.w3.org/2000/svg" xmlns:xlink="http://www.w3.org/1999/xlink" x="0px" y="0px"
	 viewBox="0 0 541.4 340.9" enable-background="new 0 0 541.4 340.9" xml:space="preserve">
<g>
	<g>
		<path fill="#FFFFFF" d="M234.8,239.2h-20.8v63h20.7c17.4,0,31.6-14.1,31.6-31.5C266.4,253.4,252.2,239.3,234.8,239.2z
			 M259.3,270.7c0,13.5-11.1,24.5-24.7,24.5h-13.5v-48.9h13.5C248.2,246.2,259.3,257.2,259.3,270.7z"/>
		<path fill="#FFFFFF" d="M321.1,256.9c0-9.8-9.4-17.7-21-17.7h-26.8v63.1h7.1v-27.7H297l18.2,27.6l0.1,0.1h8.5l-18.7-28.2
			C314.4,272.1,321.1,264.9,321.1,256.9z M313.9,256.9c0,5.9-6.2,10.8-13.8,10.9h-19.7V246h19.7C307.7,246,313.9,250.9,313.9,256.9z
			"/>
		<polygon fill="#FFFFFF" points="330.5,302.2 377.8,302.2 377.8,295.2 337.6,295.2 337.6,273.5 370.1,273.5 370.1,266.4 
			337.6,266.4 337.6,246.1 377.8,246.1 377.8,239.1 330.5,239.1 		"/>
		<polygon fill="#FFFFFF" points="159.3,302.2 206.7,302.2 206.7,295.2 166.4,295.2 166.4,273.5 199,273.5 199,266.5 166.4,266.5 
			166.4,246.2 206.7,246.2 206.7,239.2 159.3,239.2 		"/>
		<path fill="#FFFFFF" d="M146.1,284c-4.5,7.2-12.4,11.9-21.2,12.4c-0.5,0-1.1,0-1.6,0c-6.5,0-12.8-2.3-17.6-6.4
			c-5.3-4.5-8.5-10.8-8.9-17.6c-0.4-6.8,1.9-13.4,6.6-18.5c4.7-5.1,11.2-8.2,18.3-8.6c0.6,0,1.2-0.1,1.7-0.1
			c8.2,0,15.8,3.6,20.9,9.8l0.4,0.5l5.9-4.4l-0.4-0.5c-6.5-8-16.3-12.6-26.8-12.6c-0.7,0-1.4,0-2.1,0.1c-9.1,0.5-17.4,4.4-23.4,11
			c-6,6.6-9.1,15-8.5,23.8c0.6,8.8,4.6,16.8,11.4,22.6c6.2,5.3,14.2,8.2,22.5,8.2c0.7,0,1.4,0,2.1-0.1c11.2-0.7,21.3-6.6,27.1-15.8
			l0.4-0.6l-6.4-3.7L146.1,284z"/>
		<path fill="#FFFFFF" d="M392.5,248.9c-5.8,6.1-9,14.1-9,22.3c0,8.3,3.2,16.2,9,22.3c5.8,6.1,13.6,9.9,22,10.6l0.3,0v-7.5l-0.2,0
			c-13.5-1.5-23.4-12.2-23.4-25.5c0-13.2,9.8-24,23.4-25.5l0.2,0v-7.5l-0.3,0C406.1,239,398.3,242.8,392.5,248.9z"/>
		<path fill="#00B7AA" d="M443.2,248.9c-5.8-6.1-13.6-9.9-22-10.7l-0.3,0v7.5l0.2,0c13.3,1.6,23.4,12.5,23.4,25.5
			s-10,23.9-23.4,25.5l-0.2,0v7.5l0.3,0c8.4-0.8,16.3-4.6,22-10.7c5.8-6.1,9-14,9-22.3C452.2,262.9,449,255,443.2,248.9z"/>
	</g>
	<g>
		<path fill="#009A9E" d="M96.4,333.8v-15.7h2v15.7H96.4z"/>
		<path fill="#009A9E" d="M125.5,321.8v12h-2v-15.7h1.5l9.7,12.2v-12.2h2v15.7h-1.7L125.5,321.8z"/>
		<path fill="#009A9E" d="M172.8,319.8h-5.4v13.9h-2v-13.9h-5.4v-1.8h12.8V319.8z"/>
		<path fill="#009A9E" d="M206.5,332v1.8h-10.7v-15.7h10.5v1.8h-8.5v5.1h7.4v1.7h-7.4v5.4H206.5z"/>
		<path fill="#009A9E" d="M230.8,333.8v-15.7h6.7c0.7,0,1.3,0.1,1.9,0.4c0.6,0.3,1.1,0.7,1.5,1.2c0.4,0.5,0.7,1,1,1.6
			c0.2,0.6,0.4,1.2,0.4,1.8c0,0.5-0.1,1.1-0.2,1.6c-0.2,0.5-0.4,1-0.7,1.4c-0.3,0.4-0.6,0.8-1,1.1c-0.4,0.3-0.9,0.5-1.4,0.6l3.8,6
			h-2.3l-3.6-5.6h-4.2v5.6H230.8z M232.8,326.4h4.8c0.4,0,0.8-0.1,1.1-0.3c0.3-0.2,0.6-0.4,0.9-0.7c0.2-0.3,0.4-0.7,0.6-1.1
			c0.1-0.4,0.2-0.8,0.2-1.2c0-0.4-0.1-0.9-0.2-1.2c-0.2-0.4-0.4-0.7-0.6-1c-0.3-0.3-0.6-0.5-0.9-0.7c-0.3-0.2-0.7-0.3-1.1-0.3h-4.6
			V326.4z"/>
		<path fill="#009A9E" d="M264.6,333.8l6.5-15.7h1.6l6.4,15.7H277l-1.9-4.6h-6.6l-1.8,4.6H264.6z M271.9,320.4l-2.9,7.3h5.8
			L271.9,320.4z"/>
		<path fill="#009A9E" d="M301,325.8c0-0.9,0.2-1.9,0.5-2.8c0.3-0.9,0.8-1.8,1.5-2.5c0.6-0.7,1.4-1.3,2.4-1.8c0.9-0.5,2-0.7,3.2-0.7
			c1.4,0,2.6,0.3,3.6,1c1,0.6,1.7,1.5,2.2,2.5l-1.6,1c-0.2-0.5-0.5-0.9-0.9-1.3c-0.3-0.3-0.7-0.6-1.1-0.8c-0.4-0.2-0.8-0.4-1.2-0.4
			c-0.4-0.1-0.8-0.1-1.2-0.1c-0.9,0-1.6,0.2-2.3,0.5c-0.7,0.4-1.2,0.8-1.7,1.4c-0.5,0.6-0.8,1.2-1,2c-0.2,0.7-0.3,1.5-0.3,2.2
			c0,0.8,0.1,1.6,0.4,2.4c0.3,0.7,0.7,1.4,1.1,2c0.5,0.6,1.1,1,1.7,1.4c0.7,0.3,1.4,0.5,2.2,0.5c0.4,0,0.8-0.1,1.3-0.2
			c0.4-0.1,0.9-0.3,1.2-0.5c0.4-0.2,0.8-0.5,1.1-0.9c0.3-0.3,0.6-0.8,0.9-1.3l1.7,0.9c-0.3,0.6-0.6,1.1-1.1,1.6
			c-0.4,0.4-1,0.8-1.5,1.1s-1.2,0.5-1.8,0.7c-0.6,0.2-1.3,0.2-1.9,0.2c-1.1,0-2.1-0.2-3-0.7c-0.9-0.5-1.7-1.1-2.3-1.8
			c-0.7-0.8-1.2-1.6-1.5-2.6C301.1,327.8,301,326.8,301,325.8z"/>
		<path fill="#009A9E" d="M349.2,319.8h-5.4v13.9h-2v-13.9h-5.4v-1.8h12.8V319.8z"/>
		<path fill="#009A9E" d="M372.4,333.8v-15.7h2v15.7H372.4z"/>
		<path fill="#009A9E" d="M399.2,318.1l5.2,13.2l5.2-13.2h2.1l-6.4,15.7h-1.7l-6.4-15.7H399.2z"/>
		<path fill="#009A9E" d="M445,332v1.8h-10.7v-15.7h10.5v1.8h-8.5v5.1h7.4v1.7h-7.4v5.4H445z"/>
	</g>
	<path fill="#FFFFFF" d="M270.7,337.1"/>
	<path fill="#00B7AA" d="M358.5,157.3l-0.2-0.1l-0.1,0.2c-15.9,26.3-43.6,43.2-74.3,45.1c-1.9,0.1-3.8,0.2-5.7,0.2
		c-22.8,0-44.7-8.3-61.8-23.4c-18.7-16.5-29.8-39.3-31.3-64.2c-1.5-24.9,6.7-48.9,23.3-67.6c16.5-18.7,39.3-29.8,64.2-31.3
		c1.9-0.1,3.8-0.2,5.7-0.2c28.9,0,55.7,13,73.5,35.8l0.1,0.1l9.5-7.5l-0.1-0.1c-20.2-25.7-50.4-40.4-82.9-40.4
		c-2.1,0-4.3,0.1-6.5,0.2c-28.1,1.7-53.9,14.3-72.5,35.4c-18.7,21.1-28,48.2-26.3,76.3c1.7,28.1,14.3,53.9,35.4,72.5
		c19.3,17.1,44,26.5,69.7,26.5c2.2,0,4.4-0.1,6.6-0.2c34.6-2.1,66-21.1,83.9-50.9l0.1-0.2L358.5,157.3z"/>
	<path fill="#999999" d="M282.1,178.8l0-143.9l-3.6,51.5l-16.7-11.7l16.4,16.4l-0.9,13.4l-25.9-14.1l25.4,20.8l-1.3,18.1l-36.3-18.8
		c0,0,27.8,21.7,35.6,28.3l-1.2,16.7l-49.3-18.6c0,0,37,22.1,48.5,29.4l-0.9,12.5H282.1z"/>
	<polygon fill="#FFFFFF" points="329.9,118.6 289.7,142.6 288.3,122 315.5,93.1 287.7,114.5 286.5,97.1 302.5,72.1 285.9,87.8 
		282.1,34.9 282.1,178.8 292.3,178.8 290.5,153.5 	"/>
	<polygon fill="#008A80" points="215.8,148.6 230.1,123.9 233.5,139.6 	"/>
	<polygon fill="#008A80" points="323.8,106.1 292.6,133.2 322.3,122.2 	"/>
	<polygon fill="#35BBB0" points="323.8,106.1 322.3,122.2 339.7,133.2 	"/>
	<g>
		<polygon fill="#35BBB0" points="310.4,96.4 310.2,82.8 322.5,103.9 		"/>
	</g>
	<polygon fill="#008A80" points="243.6,100.9 245.3,114.1 231.7,121.3 	"/>
	<polygon fill="#00B7AA" points="243.6,100.9 272.7,121.3 245.3,114.1 	"/>
	<g>
		<polygon fill="#00B7AA" points="254.2,82.8 275.2,98.5 249,98.3 		"/>
	</g>
	<polygon fill="#008A80" points="289.4,103.9 310.4,96.4 310.2,82.8 	"/>
	<polygon fill="#00B7AA" points="230.1,123.9 233.5,139.6 269.7,148.6 	"/>
	<polygon fill="#006E66" points="245,98.5 275.2,98.5 255.3,92.6 	"/>
	<polygon fill="#006E66" points="231.7,121.3 272.7,121.3 245.3,114.1 	"/>
	<polygon fill="#006E66" points="215.8,148.6 269.7,148.6 233.5,139.6 	"/>
	<polygon fill="#006E66" points="292.6,133.2 339.7,133.2 322.3,122.2 	"/>
	<polygon fill="#006E66" points="289.4,103.9 322.5,103.9 310.4,96.4 	"/>
	<polygon fill="#008A80" points="254.2,82.8 255.3,92.6 245,98.5 	"/>
	<g>
		<polygon fill="#35BBB0" points="282.1,34.9 296.6,73.4 309.2,81.1 		"/>
		<polygon fill="#008A80" points="282.1,81.1 282.1,34.9 296.6,73.4 		"/>
		<polygon fill="#006E66" points="282.1,81.1 309.2,81.1 296.6,73.4 		"/>
	</g>
	<g>
		<polygon fill="#008A80" points="282.1,34.9 267.7,73.4 255.1,81.1 		"/>
		<polygon fill="#35BBB0" points="282.1,81.1 282.1,34.9 267.7,73.4 		"/>
		<polygon fill="#006E66" points="282.1,81.1 255.1,81.1 267.7,73.4 		"/>
	</g>
</g>
</svg>
