<?xml version="1.0" standalone="no"?>
<!DOCTYPE svg PUBLIC "-//W3C//DTD SVG 20010904//EN"
 "http://www.w3.org/TR/2001/REC-SVG-20010904/DTD/svg10.dtd">
<svg version="1.0" xmlns="http://www.w3.org/2000/svg"
 width="256.000000pt" height="256.000000pt" viewBox="0 0 256.000000 256.000000"
 preserveAspectRatio="xMidYMid meet">
<metadata>
Created by potrace 1.11, written by Peter Selinger 2001-2013
</metadata>
<g transform="translate(0.000000,256.000000) scale(0.100000,-0.100000)"
fill="#000000" stroke="none">
<path d="M1249 2556 c-2 -2 -33 -7 -69 -11 -150 -16 -365 -100 -520 -203 -103
-68 -266 -229 -338 -334 -246 -359 -293 -813 -126 -1217 223 -540 805 -863
1380 -767 364 62 686 273 878 577 l17 26 -64 40 -63 40 -44 -66 c-57 -83 -186
-214 -270 -273 -273 -193 -608 -257 -929 -177 -317 79 -596 304 -736 593 -120
249 -146 463 -90 758 10 50 65 196 100 263 106 204 286 381 490 483 72 36 176
76 230 89 147 34 341 41 474 16 235 -43 441 -153 611 -325 l88 -89 55 42 c67
52 68 48 -44 160 -185 185 -397 300 -654 355 -70 14 -365 30 -376 20z"/>
<path d="M1386 2127 c-16 -28 -79 -135 -139 -237 -60 -102 -119 -204 -132
-226 l-23 -41 80 -1 81 -1 59 -60 60 -60 -6 -72 c-3 -39 -7 -74 -10 -76 -2 -3
-31 9 -63 26 l-58 31 48 0 c26 0 47 3 47 8 0 4 -32 30 -72 57 -39 28 -76 55
-82 60 -20 19 -85 65 -90 65 -6 0 -37 -47 -84 -132 l-33 -56 102 -1 102 -1 86
-72 c95 -81 101 -86 96 -102 -2 -6 -6 -49 -9 -95 -4 -47 -8 -86 -10 -88 -6 -6
-155 70 -151 77 2 4 31 6 64 5 34 -1 58 1 55 4 -3 3 -83 61 -177 127 l-172
121 -72 -121 c-40 -66 -72 -123 -73 -127 0 -3 57 -4 128 -4 l127 1 60 -45 c33
-25 66 -51 73 -58 7 -7 40 -33 73 -59 l60 -48 -6 -95 c-4 -53 -8 -98 -10 -99
-2 -2 -50 14 -107 35 l-103 38 80 5 80 5 -40 24 c-22 13 -92 57 -155 96 -63
40 -152 95 -197 123 l-81 51 -36 -60 c-20 -33 -36 -63 -36 -66 0 -3 -8 -17
-19 -31 -10 -15 -32 -53 -50 -84 l-32 -58 98 -1 c54 0 129 -1 168 -1 69 0 70
-1 205 -82 74 -46 154 -94 176 -109 l42 -26 -5 -75 -5 -76 127 0 c116 0 126 1
121 18 -2 9 -8 64 -11 122 -4 58 -8 119 -10 136 -3 24 2 37 23 54 52 45 177
155 212 187 19 18 44 33 55 33 11 1 82 1 158 1 77 0 137 4 137 10 0 5 -27 54
-60 110 -33 55 -60 102 -60 104 0 9 -64 105 -69 105 -3 0 -22 -15 -41 -33 -19
-18 -84 -75 -145 -127 -60 -52 -128 -112 -150 -133 -38 -36 -39 -38 -15 -36
14 0 47 1 74 0 l49 -1 -83 -50 c-46 -27 -87 -50 -92 -50 -4 0 -8 15 -8 33 -1
17 -3 73 -6 122 l-5 90 104 108 104 107 102 -2 c55 -2 101 -2 101 0 0 3 -141
244 -147 252 -4 5 -252 -241 -253 -250 0 -3 29 -4 65 -2 36 2 65 1 65 -2 0 -6
-142 -118 -145 -114 -6 6 -14 75 -16 135 -3 65 -1 68 113 246 4 6 39 10 82 9
l76 -1 -32 58 c-90 158 -294 501 -298 501 -3 0 -18 -24 -34 -53z m-6 -533 c0
-30 -4 -30 -49 -2 l-36 23 30 6 c41 7 55 1 55 -27z m129 -10 c-18 -19 -34 -32
-36 -30 -10 10 -13 60 -3 66 6 3 24 4 41 2 l31 -4 -33 -34z"/>
</g>
</svg>
